<svg width="24" height="24" viewBox="0 0 24 24" fill="none" xmlns="http://www.w3.org/2000/svg">
<path d="M12.095 5.47028L10.5385 5.49027V5.52077L12.085 5.49027L13.2699 5.46028V5.44978L12.095 5.47028Z" fill="black"/>
<path d="M17.8675 11.8792C17.0478 10.6947 15.8868 9.78788 14.5391 9.27934H14.5291C14.2377 9.07523 13.9953 8.8088 13.8197 8.49937C13.6479 8.18664 13.5552 7.83666 13.5497 7.47991V7.46991L13.5297 5.451L14.4796 5.431C14.6096 5.451 14.6896 5.26101 14.6596 5.23101L14.6696 5.10101V4.83102L14.6896 4.31155L14.7396 3.27209V3.26209C14.739 3.22781 14.7251 3.19512 14.7008 3.17088C14.6766 3.14664 14.6439 3.13274 14.6096 3.1321L13.5997 3.1141C13.6997 2.48462 13.7397 1.85465 13.7897 1.22517V1.21518C13.7897 1.16479 13.7696 1.11646 13.734 1.08083C13.6984 1.0452 13.65 1.02518 13.5997 1.02518H13.5797C13.2297 1.01518 12.8797 1.00518 12.5102 1.08518C12.3107 1.12552 12.1186 1.19635 11.9407 1.29517C11.7449 1.41236 11.599 1.59742 11.5307 1.81515L11.4607 2.06514C11.4607 2.07514 11.4508 2.07514 11.4508 2.08514C11.4508 2.09514 11.4508 2.09514 11.4408 2.09514C11.4208 2.09514 11.4208 2.09514 11.4208 2.10514C11.3759 2.06557 11.3386 2.01813 11.3108 1.96514C11.2713 1.90515 11.1713 1.74565 11.0108 1.70565C10.9123 1.68253 10.8118 1.66913 10.7108 1.66566C10.5183 1.65491 10.3255 1.67861 10.1413 1.73565H10.1313C10.0978 1.74285 10.0681 1.7621 10.0478 1.78974C10.0275 1.81739 10.0181 1.85151 10.0213 1.88565C10.0404 2.27132 10.0838 2.6554 10.1513 3.0356L9.40133 3.0156C9.3359 3.0183 9.27387 3.04551 9.22756 3.09182C9.18126 3.13813 9.15405 3.20015 9.15135 3.26559C9.15135 3.94506 9.16134 4.63503 9.17134 5.3245V5.3345C9.17576 5.3931 9.2017 5.44798 9.24416 5.4886C9.28662 5.52921 9.3426 5.55269 9.40133 5.55449L10.1908 5.5345L10.1498 7.59941C10.1345 7.94002 10.042 8.27269 9.87921 8.5723C9.71646 8.8719 9.48774 9.13059 9.21034 9.32884H9.20034C8.04089 9.81832 6.98144 10.6178 6.23197 11.6572C5.4425 12.6767 4.99252 13.9461 4.88202 15.2251C4.63203 17.794 5.91148 20.4324 8.07039 21.8213C10.2093 23.2408 13.0877 23.3508 15.3461 22.1713C17.615 20.9819 19.1459 18.5035 19.1459 15.9251C19.1454 14.4772 18.699 13.0646 17.8675 11.8792ZM10.3318 2.02464C10.4453 2.01634 10.5595 2.02307 10.6713 2.04464C10.7425 2.06 10.8127 2.08004 10.8813 2.10464C10.8913 2.10464 10.8913 2.11464 10.9313 2.19463C10.9813 2.26463 11.0113 2.36463 11.1413 2.46462C11.2713 2.58462 11.4707 2.57462 11.5807 2.55462C11.7607 2.51462 11.8907 2.32463 11.9207 2.21463L11.9907 1.97464C12.0607 1.75515 12.3102 1.63516 12.6202 1.55516C12.8733 1.49759 13.1306 1.4608 13.3897 1.44517C13.4297 2.00464 13.4697 2.55462 13.5597 3.1141L10.2098 3.0341C10.2618 2.69461 10.2998 2.36463 10.3318 2.02464ZM9.63183 5.10301C9.65182 4.56354 9.66182 4.03356 9.65182 3.50308L14.0796 3.41308L14.4691 3.40308L14.4591 4.30305L14.4496 4.82302L14.4396 5.09301V5.20301H14.4696C14.4596 5.20301 14.4496 5.22301 14.4396 5.23301V5.20301L13.8002 5.19301L9.63183 5.10301ZM15.2086 21.8933C13.0587 23.0828 10.2618 22.9433 8.26288 21.5433C6.22397 20.1839 5.06302 17.6755 5.3345 15.2666C5.5645 12.8582 7.18443 10.6593 9.41183 9.72982L9.44183 9.71982L9.46183 9.69982C10.1418 9.23034 10.5713 8.42087 10.5813 7.62091L10.5413 5.521V5.491L12.0912 5.471L13.2702 5.451V5.461L13.2402 7.46991H13.2502C13.2107 8.31988 13.6802 9.10885 14.3596 9.57833L14.3896 9.58833L14.4096 9.59833C15.6907 10.084 16.7907 10.9532 17.5595 12.0872C18.3339 13.2181 18.7486 14.5565 18.7494 15.9271C18.7694 17.156 18.3995 18.3955 17.76 19.4449C17.1484 20.4782 16.2662 21.3248 15.2086 21.8933Z" fill="black"/>
<path d="M13.5605 3.11098L10.2072 3.03048C10.2572 2.699 10.2971 2.36751 10.3276 2.02652C10.4417 2.0182 10.5563 2.02492 10.6686 2.04652C10.7402 2.06181 10.8107 2.08185 10.8796 2.10652C10.8896 2.10652 10.8896 2.11652 10.9296 2.19702C10.9796 2.26751 11.0096 2.36751 11.1401 2.46801C11.2706 2.5885 11.4716 2.5785 11.5821 2.5585C11.7631 2.5185 11.8936 2.32751 11.9236 2.21702L11.9936 1.97603C12.0641 1.75503 12.3051 1.63454 12.6166 1.55454C12.8707 1.49652 13.1293 1.45957 13.3895 1.44405C13.43 2.00652 13.4705 2.5585 13.5605 3.11098Z" fill="#CD113B"/>
<path d="M14.0832 3.41163C13.8922 3.78311 14.0332 4.70707 13.8017 5.18905L9.63489 5.09956C9.65489 4.56758 9.66489 4.0351 9.65489 3.50313L14.0832 3.41163Z" fill="#FFF6D6"/>
<path d="M16.2718 12.4488L16.1413 12.5593C16.1358 12.539 16.1347 12.5177 16.1382 12.4969C16.1416 12.4761 16.1495 12.4563 16.1613 12.4388C16.1939 12.4284 16.2288 12.4284 16.2613 12.4388L16.2718 12.4488Z" fill="black"/>
<path d="M17.5168 15.03C17.4253 14.5386 17.2664 14.0621 17.0448 13.614C16.9343 13.393 16.8138 13.1821 16.6833 12.9711C16.6133 12.8711 16.5429 12.7711 16.4629 12.6711L16.3524 12.5306C16.3219 12.5106 16.3119 12.4601 16.2719 12.4501L16.1414 12.5606C16.1514 12.6006 16.1814 12.6211 16.2014 12.6511L16.3014 12.7916C16.3736 12.8846 16.4403 12.9818 16.5014 13.0826C16.6308 13.2847 16.745 13.4963 16.8428 13.7155C17.0341 14.1491 17.1723 14.6042 17.2543 15.071C17.4054 16.0064 17.3055 16.9652 16.9648 17.8494C16.7011 18.5481 16.286 19.1799 15.7494 19.6993C14.9459 20.4927 13.8915 21.0347 12.777 21.1652C10.9296 21.4867 8.96116 20.6937 7.8167 19.2073C7.224 18.4693 6.84233 17.5845 6.71225 16.6469C6.64521 16.1744 6.63833 15.6952 6.69175 15.221C6.69175 15.191 6.70225 15.171 6.70225 15.1405C7.28821 15.2597 7.89184 15.2633 8.47918 15.151C8.735 15.1074 8.98695 15.0435 9.23265 14.96C10.0861 14.689 10.8791 14.287 11.6421 13.8555C12.3955 13.4135 13.1085 12.8916 13.842 12.5001C14.5549 12.1281 15.4989 12.0281 16.1314 12.5701L16.1414 12.5601C16.1358 12.5397 16.1348 12.5184 16.1382 12.4976C16.1417 12.4769 16.1496 12.457 16.1614 12.4396C16.1939 12.4292 16.2288 12.4292 16.2614 12.4396C15.5984 11.7166 14.4839 11.7771 13.6705 12.1181C12.827 12.4681 12.1245 12.9716 11.3911 13.4135C11.0818 13.2288 10.7559 13.0735 10.4176 12.9496C10.0971 12.8032 9.75439 12.7116 9.40364 12.6786C9.29061 12.662 9.17635 12.6553 9.06215 12.6586C8.59005 12.6906 8.12915 12.8169 7.70671 13.0301C7.31522 13.251 6.96374 13.5925 6.82324 14.024C6.81275 14.044 6.81274 14.0645 6.80275 14.0845V14.0945C6.74581 14.2143 6.69882 14.3385 6.66225 14.466C6.59126 14.7034 6.53433 14.9448 6.49176 15.189C6.41797 15.6808 6.40437 16.1798 6.45126 16.6749C6.55837 17.6725 6.93306 18.6226 7.53572 19.4248C8.71067 21.0512 10.8296 21.9552 12.848 21.6542C14.2234 21.4542 15.4884 20.6902 16.3524 19.6258C16.8694 18.99 17.2415 18.249 17.4426 17.4545C17.6437 16.66 17.6691 15.8312 17.5168 15.026V15.03ZM6.83324 14.5175C6.86324 14.3675 6.92324 14.2265 6.96374 14.076C7.37522 13.343 8.25869 13.0516 9.07215 13.0016C9.12539 12.9933 9.17929 12.9899 9.23315 12.9916C9.61463 12.9711 9.97612 13.0416 10.3576 13.1521L11.3316 13.452C10.6286 13.924 9.90562 14.356 9.13165 14.657C8.93958 14.7387 8.7415 14.8056 8.53918 14.857C7.9526 15.0416 7.335 15.1071 6.72275 15.0495C6.74392 14.8693 6.7809 14.6912 6.83324 14.5175Z" fill="black"/>
<path d="M17.2576 15.0673C17.1759 14.6025 17.0384 14.1492 16.8481 13.7174C16.7536 13.4928 16.6363 13.2786 16.4981 13.0779C16.4372 12.9774 16.3705 12.8805 16.2981 12.7879L16.1981 12.6479C16.1781 12.6179 16.1481 12.5979 16.1381 12.5579L16.1281 12.5679C15.4997 12.0289 14.5592 12.1289 13.8397 12.4989C13.1103 12.8889 12.4003 13.4084 11.6398 13.8584C10.8804 14.2879 10.0809 14.6878 9.23144 14.9583C8.98697 15.0416 8.73616 15.105 8.48147 15.1478C8.36707 15.7681 8.35709 16.4032 8.45197 17.0267C8.5746 16.8729 8.72928 16.7476 8.90526 16.6596C9.08123 16.5716 9.27427 16.523 9.47093 16.5173C10.2309 16.4473 11.0004 17.1067 11.0209 17.9467C11.0009 18.5662 10.5709 19.0857 10.0209 19.2756C11.5398 19.9051 14.0087 19.8456 15.7477 19.6956C16.2842 19.1797 16.7003 18.5518 16.9666 17.8567C17.3076 16.9688 17.408 16.0065 17.2576 15.0673Z" fill="#FFBB43"/>
<path d="M10.5212 17.9458C10.5612 18.2458 10.4312 18.5653 10.2017 18.7853C10.1817 18.8053 10.1517 18.8253 10.1317 18.8453L10.1217 18.8553C10.1117 18.8653 10.0817 18.8753 10.0717 18.8853C10.049 18.9076 10.0217 18.9247 9.99168 18.9353C9.95607 18.957 9.91936 18.9769 9.88169 18.9948C9.86169 19.0053 9.83169 19.0148 9.81169 19.0248C9.80776 19.0286 9.80302 19.0315 9.79783 19.0332C9.79264 19.0349 9.78712 19.0355 9.78169 19.0348C9.77169 19.0448 9.75169 19.0448 9.74169 19.0548C9.69991 19.0706 9.65618 19.0807 9.6117 19.0848C9.58949 19.0936 9.56549 19.0971 9.5417 19.0948C9.55675 19.0873 9.5703 19.0771 9.5817 19.0648C9.20221 18.8453 8.92222 18.5648 8.77223 18.2053C8.64091 17.8936 8.54368 17.5685 8.48224 17.2359L8.51224 17.2059C8.5178 17.1884 8.52689 17.1724 8.53893 17.1586C8.55097 17.1448 8.56571 17.1337 8.58223 17.1259C8.60018 17.0978 8.62408 17.0741 8.65223 17.0564C8.67959 17.0298 8.70977 17.0064 8.74223 16.9864C8.75223 16.9764 8.75223 16.9664 8.76223 16.9664C8.78223 16.9564 8.79223 16.9464 8.81223 16.9364C8.84996 16.9094 8.89013 16.8859 8.93222 16.8664C9.02059 16.8247 9.11516 16.7977 9.21221 16.7864C9.29686 16.7645 9.3847 16.7577 9.4717 16.7664C9.49877 16.7641 9.52602 16.7675 9.5517 16.7764C9.58257 16.7782 9.61294 16.785 9.6417 16.7964C9.68049 16.7955 9.71871 16.8059 9.75169 16.8264C9.81213 16.8392 9.86973 16.8629 9.92168 16.8964C9.94803 16.9036 9.97212 16.9173 9.99168 16.9364C10.0497 16.9657 10.103 17.0036 10.1497 17.0489C10.1845 17.0734 10.2149 17.1037 10.2397 17.1384C10.2497 17.1384 10.2497 17.1384 10.2497 17.1484C10.2886 17.1871 10.3222 17.2308 10.3497 17.2784C10.3768 17.3069 10.3973 17.341 10.4097 17.3784C10.445 17.4447 10.4718 17.5153 10.4897 17.5883C10.4997 17.6083 10.4997 17.6283 10.5097 17.6383C10.5282 17.7398 10.5321 17.8433 10.5212 17.9458Z" fill="#F4AE87"/>
<path d="M11.3319 13.4531C10.629 13.9251 9.90599 14.3571 9.13203 14.6581C8.93995 14.7398 8.74188 14.8067 8.53955 14.8581C8.67605 14.2045 8.90963 13.575 9.23252 12.9906C9.61401 12.9701 9.97549 13.0406 10.357 13.1511L11.3319 13.4531Z" fill="#F4AE87"/>
<path d="M16.2718 12.4488L16.1413 12.5593C16.1358 12.539 16.1347 12.5177 16.1382 12.4969C16.1416 12.4761 16.1495 12.4563 16.1613 12.4388C16.1939 12.4284 16.2288 12.4284 16.2613 12.4388L16.2718 12.4488Z" fill="black"/>
<path d="M17.5577 12.089C16.7889 10.955 15.6889 10.0858 14.4079 9.60011L14.3879 9.59011L14.3579 9.58011C13.6784 9.11063 13.2079 8.32116 13.2484 7.4717H13.2384L13.2684 5.46278L12.0795 5.49278C11.6795 6.11226 12.4689 10.1501 10.81 11.1695C10.3005 11.489 9.80055 12.0195 9.40106 12.6785C9.7533 12.7115 10.0976 12.8028 10.42 12.9485C10.7568 13.0711 11.0813 13.2249 11.3895 13.408C12.1194 12.9685 12.8289 12.4685 13.6684 12.119C14.4878 11.779 15.5973 11.719 16.2568 12.4385L16.2668 12.4485C16.3068 12.4585 16.3168 12.5085 16.3468 12.5285L16.4568 12.6685C16.5397 12.7635 16.6165 12.8637 16.6868 12.9685C16.8186 13.1783 16.9386 13.3953 17.0462 13.6184C17.2667 14.0645 17.4248 14.5388 17.5162 15.0279C17.7062 16.014 17.6267 17.033 17.2862 17.9778C17.0748 18.5797 16.7565 19.1386 16.3468 19.6277C17.1967 19.5477 17.7562 19.4477 17.7562 19.4477C18.3957 18.3977 18.7657 17.1588 18.7457 15.9298C18.7456 14.5591 18.3316 13.2204 17.5577 12.089ZM11.931 12.4585C11.611 12.4585 11.3415 12.179 11.361 11.869C11.3685 11.7413 11.4217 11.6206 11.511 11.529C11.5262 11.4988 11.5507 11.4742 11.581 11.459L11.611 11.429C11.6602 11.3888 11.7186 11.3613 11.781 11.349C11.8062 11.3377 11.8333 11.3309 11.861 11.329H11.891C11.9028 11.3215 11.9169 11.3181 11.931 11.3195C12.2204 11.2995 12.5309 11.539 12.5404 11.8695C12.5104 12.199 12.2499 12.4785 11.931 12.4585ZM13.5199 11.429C13.0404 11.429 12.6304 10.9896 12.6504 10.5196C12.6804 10.0696 13.0604 9.68011 13.5199 9.66961C13.9699 9.63961 14.4494 10.0196 14.4699 10.5196C14.4294 11.0196 14.0099 11.459 13.5199 11.429Z" fill="#FFF6D6"/>
<path d="M14.1194 10.5199C14.1694 10.8599 13.8494 11.1598 13.5194 11.1698H13.4394C13.2793 11.1508 13.1314 11.0746 13.0231 10.9551C12.9148 10.8357 12.8533 10.6811 12.85 10.5199C12.8 10.1604 13.1299 9.83039 13.4794 9.85039H13.5194C13.8894 9.84939 14.1589 10.2104 14.1194 10.5199Z" fill="#F4AE87"/>
<path d="M10.5212 17.9464C10.5612 18.2464 10.4312 18.5659 10.2017 18.7859C10.1817 18.8059 10.1517 18.8259 10.1317 18.8459L10.1217 18.8559C10.1117 18.8659 10.0817 18.8759 10.0717 18.8859C10.049 18.9082 10.0217 18.9253 9.99173 18.9359C9.95612 18.9576 9.9194 18.9775 9.88173 18.9954C9.86173 19.0059 9.83173 19.0154 9.81173 19.0254C9.8078 19.0292 9.80307 19.0321 9.79787 19.0338C9.79268 19.0355 9.78717 19.0361 9.78174 19.0354C9.77174 19.0454 9.75174 19.0454 9.74174 19.0554C9.69996 19.0712 9.65623 19.0813 9.61174 19.0854C9.58954 19.0942 9.56554 19.0977 9.54175 19.0954C9.5568 19.0879 9.57035 19.0777 9.58175 19.0654H9.59175C10.4917 18.7154 10.1317 17.2064 9.55175 16.777C9.58262 16.7788 9.61299 16.7856 9.64174 16.797C9.68054 16.7961 9.71876 16.8065 9.75174 16.827C9.81218 16.8398 9.86978 16.8635 9.92173 16.897C9.94808 16.9041 9.97216 16.9179 9.99173 16.937C10.0498 16.9663 10.103 17.0042 10.1497 17.0495C10.1845 17.074 10.215 17.1043 10.2397 17.1389C10.2497 17.1389 10.2497 17.1389 10.2497 17.1489C10.2886 17.1877 10.3223 17.2314 10.3497 17.2789C10.3768 17.3074 10.3973 17.3416 10.4097 17.3789C10.445 17.4453 10.4719 17.5159 10.4897 17.5889C10.4997 17.6089 10.4997 17.6289 10.5097 17.6389C10.5283 17.7403 10.5321 17.8439 10.5212 17.9464Z" fill="#FFC4A6"/>
<path d="M14.1194 10.5195C14.1694 10.8595 13.8494 11.1595 13.5194 11.1695H13.4494C14.0594 11.0395 13.8394 10.0801 13.4794 9.85007H13.5194C13.8894 9.84907 14.1589 10.2101 14.1194 10.5195Z" fill="#FFC4A6"/>
<path d="M13.5198 9.67066C13.0603 9.68066 12.6803 10.0706 12.6503 10.5206C12.6303 10.9906 13.0403 11.4301 13.5198 11.4301C14.0098 11.4601 14.4292 11.0206 14.4697 10.5206C14.4497 10.0206 13.9698 9.64066 13.5198 9.67066ZM12.8503 10.5206C12.8003 10.1611 13.1303 9.83115 13.4798 9.85115H13.5198C13.8898 9.85115 14.1593 10.2111 14.1198 10.5206C14.1698 10.8606 13.8498 11.1606 13.5198 11.1706H13.4398C13.2795 11.1517 13.1315 11.0754 13.023 10.9558C12.9146 10.8363 12.8531 10.6815 12.8498 10.5201L12.8503 10.5206Z" fill="black"/>
<path d="M12.3204 11.869C12.3504 12.0889 12.1409 12.2884 11.9309 12.2989C11.9136 12.3005 11.8962 12.2969 11.8809 12.2884C11.7752 12.2799 11.6766 12.2321 11.6044 12.1545C11.5322 12.0768 11.4917 11.975 11.4909 11.869C11.4609 11.639 11.6709 11.429 11.9009 11.429H11.9309C12.1709 11.429 12.3404 11.669 12.3204 11.869Z" fill="#F4AE87"/>
<path d="M12.3203 11.869C12.3503 12.0889 12.1408 12.2884 11.9309 12.2989C11.9135 12.3005 11.8961 12.2969 11.8809 12.2884C12.2808 12.1989 12.1308 11.579 11.9009 11.429H11.9309C12.1708 11.429 12.3403 11.669 12.3203 11.869Z" fill="#FFC4A6"/>
<path d="M11.9308 11.3199C11.9168 11.3185 11.9027 11.3218 11.8908 11.3294H11.8608C11.8332 11.3313 11.8061 11.3381 11.7808 11.3494C11.7185 11.3616 11.6601 11.3891 11.6108 11.4294L11.5808 11.4594C11.5506 11.4746 11.5261 11.4991 11.5109 11.5294C11.4216 11.621 11.3684 11.7417 11.3609 11.8694C11.3414 12.1793 11.6108 12.4588 11.9308 12.4588C12.2503 12.4788 12.5103 12.1993 12.5403 11.8694C12.5303 11.5394 12.2203 11.2994 11.9308 11.3199ZM11.9008 11.4294H11.9308C12.1708 11.4294 12.3403 11.6694 12.3203 11.8694C12.3503 12.0894 12.1408 12.2888 11.9308 12.2993C11.9135 12.301 11.8961 12.2973 11.8808 12.2888C11.7752 12.2803 11.6765 12.2326 11.6043 12.1549C11.5321 12.0773 11.4916 11.9754 11.4909 11.8694C11.4609 11.6394 11.6708 11.4294 11.8998 11.4294H11.9008Z" fill="black"/>
<path d="M9.47172 16.5165C9.27506 16.5223 9.08202 16.5708 8.90605 16.6588C8.73008 16.7468 8.57539 16.8721 8.45277 17.026C8.23052 17.2799 8.11263 17.6086 8.12278 17.9459C8.09278 18.6554 8.71225 19.3349 9.47272 19.3648C9.65738 19.3799 9.8429 19.349 10.0127 19.2749H10.0227C10.5727 19.0849 11.0022 18.5654 11.0227 17.9459C10.9997 17.1059 10.2317 16.449 9.47172 16.5165ZM8.24277 17.9459C8.23949 17.8687 8.24621 17.7914 8.26277 17.7159C8.2612 17.6954 8.26463 17.6748 8.27277 17.6559C8.27277 17.6359 8.28277 17.6259 8.28277 17.6159C8.29399 17.5628 8.31429 17.5121 8.34277 17.4659C8.34527 17.4509 8.35224 17.437 8.36277 17.4259C8.38321 17.376 8.4101 17.3289 8.44277 17.2859C8.45277 17.2659 8.47226 17.2559 8.48226 17.2359L8.51226 17.2059C8.51783 17.1885 8.52691 17.1724 8.53896 17.1587C8.551 17.1449 8.56574 17.1338 8.58226 17.1259C8.58834 17.1101 8.59772 17.0957 8.60979 17.0837C8.62185 17.0717 8.63633 17.0624 8.65226 17.0565C8.67962 17.0299 8.7098 17.0064 8.74225 16.9865C8.75225 16.9765 8.75225 16.9665 8.76225 16.9665C8.78225 16.9565 8.79225 16.9465 8.81225 16.9365C8.84998 16.9094 8.89016 16.886 8.93224 16.8665C9.02061 16.8248 9.11518 16.7978 9.21223 16.7865C9.29598 16.7596 9.38485 16.7528 9.47172 16.7665C9.49879 16.7642 9.52604 16.7676 9.55172 16.7765C9.58258 16.7783 9.61296 16.7851 9.64171 16.7965C9.68051 16.7956 9.71873 16.806 9.75171 16.8265C9.81215 16.8393 9.86975 16.863 9.9217 16.8965C9.94805 16.9036 9.97213 16.9174 9.9917 16.9365C10.0497 16.9658 10.103 17.0037 10.1497 17.049C10.1845 17.0735 10.2149 17.1038 10.2397 17.1384C10.2497 17.1384 10.2497 17.1384 10.2497 17.1484C10.2886 17.1872 10.3222 17.2309 10.3497 17.2784C10.3768 17.3069 10.3973 17.3411 10.4097 17.3784C10.445 17.4448 10.4719 17.5154 10.4897 17.5884C10.4997 17.6084 10.4997 17.6284 10.5097 17.6384C10.528 17.7407 10.5313 17.8451 10.5197 17.9484C10.5597 18.2484 10.4297 18.5679 10.2002 18.7879C10.1802 18.8079 10.1502 18.8279 10.1302 18.8479L10.1202 18.8579C10.1102 18.8679 10.0802 18.8779 10.0702 18.8879C10.0475 18.9102 10.0202 18.9273 9.9902 18.9379C9.95459 18.9596 9.91787 18.9795 9.8802 18.9974C9.8602 19.0079 9.8302 19.0174 9.81021 19.0274C9.80627 19.0312 9.80154 19.034 9.79634 19.0358C9.79115 19.0375 9.78564 19.0381 9.78021 19.0374C9.77021 19.0474 9.75021 19.0474 9.74021 19.0574C9.69843 19.0732 9.6547 19.0833 9.61021 19.0874C9.58801 19.0962 9.56401 19.0997 9.54022 19.0974H9.53022C9.51132 19.1055 9.49073 19.1089 9.47022 19.1074C8.84225 19.1749 8.22278 18.6054 8.24277 17.9459Z" fill="black"/>
<path d="M17.7579 19.4491C17.1449 20.4812 16.2637 21.3278 15.208 21.899C13.0581 23.0835 10.2582 22.943 8.25828 21.549C6.22037 20.1831 5.06542 17.6832 5.33641 15.2728C5.5674 12.8634 7.18633 10.664 9.41324 9.73052L9.44323 9.72002L9.46323 9.70002C9.79828 9.46452 10.0736 9.15392 10.2672 8.79304C10.4608 8.43215 10.5673 8.03099 10.5782 7.62161L10.5377 5.52169L12.0841 5.4912C11.6841 6.11417 12.4656 10.1505 10.8092 11.175C10.2967 11.4859 9.80472 12.0184 9.40324 12.6809C9.29021 12.6643 9.17595 12.6576 9.06175 12.6609C8.58965 12.6929 8.12875 12.8192 7.70631 13.0324C7.31482 13.2534 6.96334 13.5949 6.82284 14.0263C6.81234 14.0463 6.81234 14.0668 6.80234 14.0868V14.0968C6.74541 14.2166 6.69842 14.3409 6.66185 14.4683C6.59086 14.7058 6.53393 14.9472 6.49136 15.1913C6.41757 15.6831 6.40397 16.1821 6.45086 16.6772C6.55797 17.6748 6.93266 18.6249 7.53531 19.4271C8.71027 21.0535 10.8292 21.9575 12.8476 21.6565C14.223 21.4565 15.488 20.6926 16.3519 19.6281C17.1959 19.5491 17.7579 19.4491 17.7579 19.4491Z" fill="#F9E4BB"/>
<path d="M15.7494 19.6947C14.9494 20.4946 13.8904 21.0336 12.781 21.1636C10.9311 21.4836 8.96315 20.6941 7.81369 19.2047C7.22341 18.4665 6.84339 17.5826 6.71374 16.6463C6.64705 16.1726 6.64033 15.6923 6.69374 15.2169C6.69374 15.1869 6.70374 15.1669 6.70374 15.1374C7.29054 15.2553 7.89464 15.2586 8.48267 15.1469C8.36826 15.7672 8.35829 16.4022 8.45317 17.0258C8.23092 17.2797 8.11303 17.6084 8.12318 17.9457C8.09318 18.6552 8.71266 19.3347 9.47312 19.3647C9.65779 19.3797 9.8433 19.3488 10.0131 19.2747H10.0231C11.5405 19.9042 14.0094 19.8447 15.7494 19.6947Z" fill="#EF9A03"/>
<path d="M9.23317 12.9914C8.91028 13.5758 8.6767 14.2053 8.5402 14.8589C7.95317 15.043 7.33523 15.1078 6.72278 15.0494C6.74392 14.869 6.7809 14.6908 6.83327 14.5169C6.86327 14.3669 6.92327 14.2259 6.96377 14.0754C7.37525 13.3424 8.25871 13.0509 9.07218 13.0009C9.12544 12.9928 9.17933 12.9896 9.23317 12.9914Z" fill="#F9BDA0"/>
<path d="M9.58167 19.0649C9.57028 19.0773 9.55672 19.0875 9.54167 19.0949H9.53167C9.51278 19.1031 9.49219 19.1065 9.47168 19.1049C8.8422 19.1749 8.22172 18.605 8.24272 17.946C8.23944 17.8688 8.24616 17.7915 8.26272 17.716C8.26115 17.6955 8.26458 17.6749 8.27272 17.656C8.27272 17.636 8.28272 17.626 8.28272 17.616C8.29394 17.5629 8.31424 17.5122 8.34272 17.466C8.34522 17.451 8.35219 17.4371 8.36272 17.426C8.38315 17.3761 8.41005 17.329 8.44271 17.286C8.45271 17.266 8.47221 17.256 8.48221 17.236C8.54365 17.5687 8.64088 17.8937 8.7722 18.2055C8.9222 18.5655 9.20219 18.8455 9.58167 19.0649Z" fill="#E29874"/>
<path d="M14.4648 3.39986L14.4548 4.30382L14.4448 4.8258L14.4348 5.08679V5.19978L13.8018 5.18978C14.0328 4.7078 13.8923 3.78384 14.0833 3.41236L14.4648 3.39986Z" fill="#F7E5B0"/>
</svg>
